<?xml version="1.0" encoding="UTF-8" standalone="no"?><!DOCTYPE svg PUBLIC "-//W3C//DTD SVG 1.1//EN" "http://www.w3.org/Graphics/SVG/1.1/DTD/svg11.dtd"><svg width="100%" height="100%" viewBox="0 0 400 400" version="1.1" xmlns="http://www.w3.org/2000/svg" xmlns:xlink="http://www.w3.org/1999/xlink" xml:space="preserve" xmlns:serif="http://www.serif.com/" style="fill-rule:evenodd;clip-rule:evenodd;stroke-linecap:round;stroke-miterlimit:1;"><path d="M309.283,336.683l18.534,16.359l-0,2.521l0.295,2.633l0.934,3.529l2.116,6.108l-1.229,13.446c0,0 2.509,2.579 2.95,2.917c0.442,0.333 4.079,2.912 4.079,2.912c0,0 2.655,0.338 3.492,0c0.833,-0.337 13.321,0.392 13.321,0.392l3.542,-1.4l1.67,-2.971l3.146,0l6.442,-1.791l0.537,-3.309l1.671,-3.358l2.804,-2.917l1.475,-12.212l0,-6.388l5.95,-1.904l1.621,-1.737l0,-13.392l1.279,-11.204l1.425,-8.071l0,-8.292l2.163,-9.075l-0,-16.025l-1.475,-5.208l-0.442,-11.263l-3.933,-8.07l-2.558,-6.105l-3.392,-8.35l-2.8,-9.412l-1.133,-7.004l-3.392,-7.734l-3.096,-9.354l-3.687,-7.733l-1.721,-7.058l-4.817,-10.592l-2.312,-4.817l-1.967,-5.771l-2.013,-5.77l0,-5.213l-1.133,-4.479l0.396,-3.196l3.392,2.242l0.295,4.816l-0.837,2.242l1.967,2.579l-0.542,4.2l1.671,5.829l1.671,4.313l1.133,3.421l1.129,-0l1.133,4.537l0.834,-6.275l-1.129,-3.866l-0.542,-2.913l-0.296,-3.867l1.425,-2.912l2.263,2.237l-0.542,3.534l0.837,2.237l0.834,-2.912l-0.538,-5.771l-2.804,-4.483l-4.817,-8.067l-9.587,-19.608l-2.8,-3.867l-0.838,-3.867l-5.95,-14.791l-5.65,-15.13l-2.262,-7.729l-0.542,-7.733l-1.425,-2.242l-1.966,-11.879l-4.18,-21.737l-0.491,-3.192l-3.638,-10.871l-1.129,-1.625l-3.392,-2.579l-4.229,-1.904l-7.621,-3.529l-5.112,-0.617l-3.983,2.242l-0.884,6.441l-0.441,4.204l0.341,3.867l0,5.546l-0.246,6.05l-2.408,0.337l-4.621,-0.391l-1.816,-3.925l-0,-3.304l-1.921,-3.475l-2.013,-3.025l-120.3,-8.796l-8.012,-0l-3.242,-2.521l0,-11.6l-2.117,-3.696l-129.045,0l-0.542,11.038l3.587,1.962l2.117,2.575l1.671,2.242l3,1.85l0.392,3.304l-0,3.362l-1.525,2.409l-0.146,3.25l1.425,3.25l2.262,0.337l1.425,0.671l-1.133,2.354l-2.163,0l-1.079,2.575l-1.966,2.467l-0.296,2.408l4.229,-1.341l2.358,-0l0.738,-2.242l1.129,-1.4l1.871,-0l0.096,2.017l2.262,0.504l2.567,-0.288l3.333,-0.275l4.521,-1.625l4.821,-0.333l4.225,-1.292l3.933,-0.616l3.933,-0.334l2.805,0.334l8.65,1.291l8.75,1.904l14.7,5.771l3.095,2.242l2.805,1.287l2.554,1.905l12.833,10.533l3.783,2.746l2.95,2.354l2.559,4.704l1.671,4.204l7.82,8.154l9.634,-2l40.654,-26.883l3.933,1.513l6.734,3.754l3.491,1.904l4.375,1.904l3.392,3.867l4.079,3.866l0,5.659l1.771,1.904l1.821,0.337l1.966,0.617l0.296,2.633l2.209,0l1.083,10.421l2.262,1.679l3.538,3.196l2.312,0l2.213,2.184l0.833,4.816l1.671,3.421l2.754,0l1.671,1.679l0.738,5.659l6.195,-0l3.588,1.85l3.687,3.475l2.263,3.079l-1.129,2.633l-0.542,2.467l1.129,1.85l1.375,6.441l1.675,2.017l1.129,1.963l1.425,4.987l-1.425,3.079l-1.129,2.579l0.292,2.913l0.296,5.771l-1.967,3.866l-1.129,5.771l-0.542,4.484l-2.554,5.154l0.292,4.479l-1.671,4.204l-1.671,4.538l0.542,5.545l1.129,3.475l2.262,2.242l0.209,9.188l4.954,11.095l0.542,3.867l2.8,2.913l-1.425,-5.155l2.262,1.288l1.425,3.867l0.542,5.77l3.096,3.25l0.541,5.825l1.671,2.3l2.263,6.496l2.358,4.371l2.8,5.55l16.371,22.242l2.804,2.241l4.229,10.309l1.425,11.879l1.967,6.108l2.258,4.479l1.429,0.171l2.75,-1.121Z" style="fill-opacity:0;stroke:#000;stroke-width:16.67px;"/></svg>